{"glyphs":{":":{"x_min":0,"x_max":278,"ha":278,"o":"m 102 0 l 121 88 l 194 88 l 175 0 z m 188 404 l 207 492 l 280 492 l 261 404 z"},"$":{"x_min":0,"x_max":556,"ha":556,"o":"m 393 651 q 365 651 338 642 q 312 633 290 616 q 269 600 254 577 q 238 554 232 526 q 225 493 231 471 q 237 449 252 434 q 267 420 290 411 q 313 402 339 394 z m 309 35 q 340 35 370 46 q 400 57 425 76 q 450 95 468 122 q 485 148 492 180 q 500 217 494 242 q 487 266 470 282 q 452 297 426 306 q 401 315 370 322 z m 282 -95 l 236 -95 l 252 -19 q 168 -14 122 28 q 75 70 75 154 q 75 167 76 179 q 78 191 80 203 l 145 203 q 138 169 143 140 q 148 110 163 88 q 178 65 204 51 q 229 37 262 35 l 326 332 q 287 342 253 356 q 219 369 196 390 q 174 412 166 444 q 157 476 167 523 q 176 565 200 599 q 223 633 255 657 q 287 681 326 694 q 365 706 406 705 l 419 766 l 465 766 l 452 705 q 493 705 526 694 q 558 682 579 660 q 600 637 608 604 q 616 571 609 529 l 544 529 q 550 556 544 578 q 539 601 524 617 q 510 633 488 642 q 467 651 440 651 l 384 385 q 430 373 467 359 q 504 345 528 322 q 551 299 558 262 q 566 226 554 169 q 545 125 518 90 q 492 56 456 32 q 421 8 380 -5 q 338 -18 298 -19 z"},"?":{"x_min":0,"x_max":500,"ha":500,"o":"m 255 182 q 265 237 284 282 q 302 327 349 368 q 376 391 404 413 q 433 435 458 458 q 483 480 502 504 q 520 528 526 556 q 537 610 505 648 q 473 685 398 685 q 361 685 330 672 q 298 659 273 636 q 248 613 232 582 q 215 552 209 516 l 148 516 q 155 566 178 607 q 202 648 238 678 q 273 707 318 723 q 362 739 411 739 q 514 739 560 688 q 607 636 589 551 q 580 507 554 476 q 527 444 494 417 q 460 390 424 362 q 388 335 359 301 q 337 275 328 244 q 319 212 313 182 z m 210 0 l 229 88 l 302 88 l 283 0 z"},"<":{"x_min":0,"x_max":660,"ha":660,"o":"m 592 58 l 579 -6 l 129 229 l 140 282 l 687 505 l 674 441 l 213 255 z"},"'":{"x_min":0,"x_max":222,"ha":222,"o":"m 238 720 l 290 720 l 242 494 l 190 494 z"},"=":{"x_min":0,"x_max":660,"ha":660,"o":"m 648 318 l 148 318 l 160 378 l 660 378 z m 606 124 l 106 124 l 119 184 l 619 184 z"},"a":{"x_min":0,"x_max":556,"ha":556,"o":"m 469 272 q 427 256 388 251 q 348 246 308 243 q 238 238 194 212 q 149 186 138 133 q 133 109 139 92 q 145 74 158 62 q 172 51 191 46 q 210 40 231 40 q 267 40 302 49 q 338 58 368 76 q 399 95 421 124 q 443 152 452 191 z m 374 302 q 391 304 416 308 q 440 312 457 319 q 474 326 480 342 q 487 359 490 373 q 495 396 492 415 q 489 434 476 448 q 464 462 442 470 q 419 478 384 478 q 322 478 276 453 q 230 428 208 361 l 147 361 q 160 407 184 440 q 209 472 242 492 q 275 513 314 522 q 354 532 396 532 q 435 532 468 524 q 500 515 522 496 q 543 478 551 447 q 559 416 550 371 l 490 89 q 482 54 492 44 q 503 35 544 49 l 534 2 q 527 0 512 -4 q 498 -8 485 -8 q 472 -8 459 -5 q 430 0 426 22 q 422 45 427 72 q 380 30 326 8 q 273 -14 216 -14 q 182 -14 152 -5 q 123 4 103 23 q 83 42 75 70 q 67 97 75 135 q 102 267 289 291 z"},"L":{"x_min":0,"x_max":556,"ha":556,"o":"m 81 0 l 234 720 l 302 720 l 161 58 l 547 58 l 535 0 z"},"3":{"x_min":0,"x_max":556,"ha":556,"o":"m 304 392 q 349 392 387 398 q 425 403 455 418 q 485 434 506 460 q 526 486 535 527 q 542 560 535 584 q 528 607 510 622 q 493 637 467 644 q 441 651 411 651 q 377 651 347 640 q 317 629 293 608 q 269 588 252 560 q 235 533 228 500 l 164 500 q 175 548 200 586 q 224 625 266 658 q 305 688 348 696 q 392 705 436 705 q 478 705 512 694 q 546 684 569 662 q 592 641 600 608 q 609 575 600 531 q 588 476 556 436 q 523 396 466 374 q 502 362 522 342 q 542 323 551 300 q 560 276 560 250 q 560 224 555 200 q 546 156 522 118 q 499 80 464 51 q 429 22 383 4 q 337 -13 282 -14 q 221 -14 178 -3 q 136 8 111 34 q 86 59 78 100 q 70 142 77 204 l 141 204 q 133 164 139 134 q 145 103 164 82 q 183 61 213 50 q 243 40 282 40 q 320 40 356 53 q 391 66 420 88 q 448 110 466 139 q 485 168 490 199 q 498 242 486 270 q 474 299 447 316 q 420 332 380 338 q 340 343 293 340 z"},";":{"x_min":0,"x_max":278,"ha":278,"o":"m 169 -30 q 159 -74 133 -100 q 107 -127 73 -137 l 81 -100 q 95 -92 108 -78 q 122 -64 129 -34 l 136 0 l 102 0 l 121 88 l 194 88 z m 188 404 l 207 492 l 280 492 l 261 404 z"},"J":{"x_min":0,"x_max":500,"ha":500,"o":"m 138 228 q 130 194 126 161 q 122 128 129 102 q 136 75 159 59 q 182 43 229 43 q 299 43 336 83 q 373 123 389 199 l 500 720 l 568 720 l 457 197 q 434 92 374 36 q 313 -19 208 -19 q 147 -19 114 2 q 81 22 68 56 q 55 91 58 136 q 60 180 70 228 z"},"V":{"x_min":0,"x_max":611,"ha":611,"o":"m 171 720 l 242 720 l 323 80 l 675 720 l 746 720 l 343 0 l 268 0 z"},"\"":{"x_min":0,"x_max":278,"ha":278,"o":"m 210 720 l 262 720 l 214 494 l 162 494 z m 321 720 l 373 720 l 325 494 l 273 494 z"},"7":{"x_min":0,"x_max":556,"ha":556,"o":"m 207 698 l 656 698 l 644 638 q 550 552 478 462 q 405 371 353 286 q 301 200 268 126 q 236 52 222 0 l 152 0 q 173 76 216 162 q 260 247 316 331 q 372 415 437 494 q 502 572 566 634 l 194 634 z"},"S":{"x_min":0,"x_max":611,"ha":611,"o":"m 155 215 q 149 167 159 134 q 169 100 192 79 q 215 58 249 48 q 283 39 324 39 q 372 39 410 51 q 447 63 474 84 q 500 104 516 131 q 533 158 539 188 q 548 230 534 256 q 521 282 494 298 q 466 315 429 325 q 392 335 353 344 q 314 354 277 367 q 240 380 214 402 q 188 424 176 458 q 165 493 176 546 q 184 583 207 618 q 230 653 266 680 q 302 707 352 723 q 401 739 461 739 q 522 739 564 722 q 605 705 629 676 q 653 646 660 607 q 667 568 657 524 l 592 524 q 601 565 592 595 q 584 625 564 644 q 544 663 514 672 q 483 681 449 681 q 397 681 358 666 q 320 652 294 629 q 268 606 254 578 q 240 550 239 522 q 237 487 254 466 q 272 445 301 432 q 330 418 367 410 q 404 401 442 392 q 480 382 515 369 q 550 356 574 334 q 598 312 608 278 q 619 243 608 191 q 587 91 506 36 q 425 -19 300 -19 q 244 -19 199 -4 q 154 10 126 40 q 97 69 87 112 q 77 156 89 215 z"},"}":{"x_min":0,"x_max":333,"ha":333,"o":"m 287 395 q 282 372 281 353 q 280 334 286 319 q 292 304 306 294 q 320 284 344 279 l 344 277 q 314 269 296 258 q 277 248 266 234 q 254 220 248 201 q 241 182 236 157 l 198 -25 q 189 -69 176 -100 q 162 -131 142 -150 q 121 -170 92 -178 q 62 -187 19 -185 q 105 -157 125 -64 l 166 128 q 172 157 180 181 q 189 205 202 224 q 214 243 233 256 q 252 270 280 277 l 280 279 q 233 290 224 324 q 215 358 227 414 l 271 620 q 282 671 268 699 q 254 727 209 741 l 209 743 q 253 744 280 736 q 308 728 322 710 q 336 692 337 664 q 338 637 330 599 z"},"Z":{"x_min":0,"x_max":611,"ha":611,"o":"m 31 0 l 43 57 l 633 662 l 211 662 l 223 720 l 729 720 l 717 663 l 127 58 l 591 58 l 579 0 z"},"x":{"x_min":0,"x_max":500,"ha":500,"o":"m 300 224 l 91 0 l 18 0 l 274 268 l 144 518 l 218 518 l 317 312 l 508 518 l 584 518 l 344 268 l 481 0 l 409 0 z"},")":{"x_min":0,"x_max":333,"ha":333,"o":"m 15 -191 q 109 -87 175 32 q 241 150 268 277 q 294 402 278 519 q 261 636 213 739 l 264 739 q 293 682 314 628 q 334 575 344 520 q 354 464 352 404 q 351 343 336 272 q 321 203 296 142 q 272 82 238 26 q 205 -30 162 -84 q 118 -137 66 -191 z"},"&":{"x_min":0,"x_max":667,"ha":667,"o":"m 329 375 q 296 361 266 342 q 237 322 213 298 q 189 274 172 246 q 155 219 149 190 q 141 154 148 126 q 154 97 172 77 q 189 57 216 46 q 243 35 278 35 q 336 35 386 62 q 437 88 482 131 z m 493 540 q 506 560 509 582 q 512 605 505 624 q 498 642 480 654 q 463 666 435 666 q 416 666 398 660 q 379 654 363 643 q 347 632 336 616 q 324 600 320 580 q 317 564 321 545 q 325 526 332 508 q 340 490 350 474 q 359 457 367 445 q 401 463 436 484 q 470 506 493 540 z m 528 186 q 553 218 566 254 q 579 289 587 326 l 646 326 q 633 277 612 228 q 592 180 556 138 l 644 0 l 563 0 l 511 85 q 452 29 393 5 q 334 -19 262 -19 q 215 -19 178 -4 q 140 12 115 40 q 90 68 81 108 q 72 147 82 195 q 91 235 112 269 q 133 303 162 331 q 192 359 228 380 q 264 402 302 418 q 291 435 281 454 q 271 472 264 492 q 258 512 256 534 q 254 555 259 579 q 266 613 284 640 q 303 666 329 684 q 355 702 386 711 q 418 720 451 720 q 484 720 510 709 q 535 698 551 679 q 567 660 572 634 q 578 609 572 581 q 564 545 547 518 q 530 492 506 472 q 482 451 453 434 q 424 417 392 400 z"},"_":{"x_min":0,"x_max":500,"ha":500,"o":"m 484 -75 l 473 -125 l -27 -125 l -16 -75 z"},"v":{"x_min":0,"x_max":500,"ha":500,"o":"m 127 518 l 192 518 l 266 74 l 528 518 l 593 518 l 282 0 l 215 0 z"},"O":{"x_min":0,"x_max":778,"ha":778,"o":"m 129 359 q 145 438 182 507 q 218 576 272 628 q 325 679 393 709 q 461 739 542 739 q 626 739 684 710 q 741 680 772 628 q 804 577 810 508 q 817 438 800 359 q 783 281 748 212 q 712 144 659 92 q 606 41 536 11 q 467 -19 384 -19 q 301 -19 244 11 q 188 41 157 92 q 126 144 119 212 q 112 281 129 359 z m 397 39 q 467 39 523 66 q 579 92 621 136 q 663 180 691 238 q 719 296 732 359 q 748 434 742 494 q 736 553 710 595 q 684 637 639 659 q 594 681 532 681 q 463 681 407 654 q 351 627 309 582 q 267 538 238 480 q 210 422 197 359 q 183 295 186 237 q 190 179 213 135 q 236 91 281 65 q 326 39 397 39 z"},"(":{"x_min":0,"x_max":333,"ha":333,"o":"m 434 739 q 340 635 274 516 q 208 398 182 271 q 155 146 172 29 q 189 -88 236 -191 l 185 -191 q 156 -134 136 -80 q 115 -27 105 28 q 95 84 97 144 q 99 205 114 276 q 129 345 153 406 q 177 466 211 522 q 245 578 288 632 q 331 685 383 739 z"},"C":{"x_min":0,"x_max":722,"ha":722,"o":"m 701 511 q 699 603 650 642 q 602 681 510 681 q 445 681 392 655 q 339 629 300 585 q 260 541 233 484 q 206 426 193 362 q 180 302 180 244 q 180 186 200 140 q 219 95 262 67 q 305 39 379 39 q 425 39 466 54 q 507 69 542 96 q 576 122 603 158 q 630 194 649 237 l 720 237 q 697 185 664 138 q 631 92 586 57 q 542 22 484 2 q 426 -19 354 -19 q 271 -19 218 12 q 166 42 140 94 q 113 146 110 214 q 108 283 125 360 q 147 463 188 535 q 228 607 282 652 q 337 698 402 718 q 468 739 540 739 q 651 739 714 681 q 777 623 771 511 z"},"W":{"x_min":0,"x_max":889,"ha":889,"o":"m 666 96 l 668 96 l 958 720 l 1028 720 l 686 0 l 611 0 l 579 636 l 577 636 l 275 0 l 200 0 l 167 720 l 235 720 l 257 96 l 259 96 l 559 720 l 635 720 z"},"A":{"x_min":0,"x_max":667,"ha":667,"o":"m 15 0 l 451 720 l 528 720 l 651 0 l 581 0 l 546 226 l 218 226 l 85 0 z m 253 284 l 535 284 l 475 662 z"},"f":{"x_min":0,"x_max":278,"ha":278,"o":"m 119 468 l 130 518 l 207 518 l 225 600 q 238 662 270 698 q 303 734 363 734 q 392 734 412 730 l 400 675 q 382 680 366 680 q 343 680 328 672 q 313 663 304 649 q 295 635 290 618 q 285 600 281 582 l 267 518 l 367 518 l 356 468 l 256 468 l 157 0 l 97 0 l 196 468 z"},"Q":{"x_min":0,"x_max":778,"ha":778,"o":"m 706 -6 l 658 -52 l 569 30 q 527 7 480 -6 q 433 -19 379 -19 q 296 -19 240 11 q 183 41 152 92 q 121 144 114 212 q 107 281 124 359 q 140 434 175 502 q 210 571 262 624 q 315 676 384 708 q 453 739 537 739 q 613 739 670 714 q 727 689 762 641 q 796 593 805 522 q 814 451 795 359 q 777 271 734 196 q 691 121 625 68 z m 584 107 q 639 151 675 218 q 711 284 727 359 q 744 440 736 500 q 729 560 702 600 q 675 641 630 661 q 585 681 527 681 q 458 681 402 654 q 346 627 304 582 q 262 537 234 479 q 205 421 192 359 q 178 295 182 237 q 185 179 208 135 q 231 91 276 65 q 321 39 392 39 q 430 39 463 48 q 496 56 525 71 l 456 134 l 502 181 z"},"w":{"x_min":0,"x_max":722,"ha":722,"o":"m 527 80 l 756 518 l 817 518 l 539 0 l 475 0 l 454 435 l 452 435 l 245 0 l 173 0 l 125 518 l 185 518 l 225 76 l 439 518 l 506 518 z"},"-":{"x_min":0,"x_max":333,"ha":333,"o":"m 355 291 l 342 229 l 89 229 l 102 291 z"},"E":{"x_min":0,"x_max":611,"ha":611,"o":"m 81 0 l 234 720 l 713 720 l 701 662 l 290 662 l 234 402 l 605 402 l 593 344 l 222 344 l 161 58 l 582 58 l 570 0 z"},"s":{"x_min":0,"x_max":500,"ha":500,"o":"m 141 162 q 142 95 172 68 q 203 40 271 40 q 304 40 330 48 q 355 56 374 70 q 392 83 404 100 q 415 117 419 136 q 427 174 406 192 q 386 211 351 222 q 316 232 275 240 q 234 247 200 262 q 166 277 148 305 q 129 333 140 384 q 154 449 210 490 q 266 532 353 532 q 437 532 481 494 q 525 457 518 369 l 457 369 q 461 429 429 454 q 397 478 341 478 q 284 478 248 454 q 213 429 205 389 q 199 363 210 346 q 221 329 242 318 q 263 307 291 300 q 319 292 348 284 q 378 277 406 267 q 433 257 453 240 q 473 224 482 199 q 491 174 483 137 q 475 100 454 72 q 432 43 400 24 q 367 5 326 -4 q 286 -14 240 -14 q 194 -14 162 0 q 129 13 109 37 q 89 61 82 93 q 74 125 80 162 z"},">":{"x_min":0,"x_max":660,"ha":660,"o":"m 629 229 l 79 -6 l 92 58 l 555 255 l 174 441 l 187 505 l 640 282 z"},"l":{"x_min":0,"x_max":222,"ha":222,"o":"m 81 0 l 234 720 l 294 720 l 141 0 z"},"8":{"x_min":0,"x_max":556,"ha":556,"o":"m 352 345 q 278 345 222 308 q 166 272 149 194 q 142 161 148 133 q 155 105 174 84 q 192 64 222 52 q 252 40 292 40 q 327 40 360 52 q 392 63 418 84 q 445 105 464 134 q 482 163 490 198 q 498 235 490 262 q 483 290 464 308 q 445 327 416 336 q 387 345 352 345 z m 414 651 q 354 651 306 619 q 258 587 244 524 q 237 491 244 468 q 252 444 270 429 q 288 414 314 406 q 339 399 368 399 q 426 399 472 431 q 517 463 533 538 q 544 592 516 622 q 487 651 414 651 z m 248 379 q 226 395 210 410 q 195 424 186 441 q 178 458 176 480 q 175 501 182 533 q 190 569 212 601 q 235 633 268 656 q 300 680 340 693 q 379 706 420 705 q 460 705 496 695 q 533 685 558 664 q 584 643 595 610 q 606 578 596 533 q 585 478 554 439 q 523 400 467 375 q 521 354 544 308 q 568 262 555 200 q 532 96 453 41 q 374 -14 261 -14 q 223 -14 186 -1 q 150 12 124 38 q 98 64 86 103 q 74 142 85 194 q 99 257 140 306 q 182 356 248 379 z"},"\\":{"x_min":0,"x_max":278,"ha":278,"o":"m 147 739 l 203 739 l 262 -90 l 206 -90 z"},"e":{"x_min":0,"x_max":556,"ha":556,"o":"m 510 295 q 518 333 514 366 q 511 400 496 424 q 481 449 453 464 q 425 478 385 478 q 345 478 312 463 q 278 448 251 423 q 224 398 204 365 q 184 332 172 295 z m 161 245 q 152 203 155 166 q 158 128 174 100 q 190 73 220 56 q 249 40 292 40 q 351 40 400 71 q 448 102 474 159 l 541 159 q 522 122 498 90 q 473 59 441 36 q 409 12 369 -1 q 329 -14 280 -14 q 218 -14 178 7 q 137 28 116 64 q 94 101 91 150 q 88 200 100 257 q 112 314 139 364 q 166 414 204 452 q 243 489 292 510 q 340 532 396 532 q 503 532 548 458 q 594 385 563 245 z"},"b":{"x_min":0,"x_max":611,"ha":611,"o":"m 194 261 q 184 214 187 174 q 190 133 206 104 q 222 74 252 57 q 281 40 323 40 q 361 40 396 54 q 431 67 460 93 q 489 119 510 156 q 532 194 543 243 q 555 292 554 334 q 553 377 538 409 q 523 441 492 460 q 462 478 416 478 q 375 478 339 460 q 303 443 274 414 q 244 384 224 344 q 203 305 194 261 z m 139 0 l 79 0 l 232 720 l 292 720 l 231 435 q 270 483 326 508 q 382 532 437 532 q 496 532 535 510 q 574 487 594 450 q 615 412 618 362 q 622 312 610 258 q 598 201 574 151 q 550 101 514 64 q 478 28 430 7 q 381 -14 318 -14 q 293 -14 268 -7 q 244 0 222 13 q 201 26 184 46 q 168 65 160 91 l 158 91 z"},"%":{"x_min":0,"x_max":889,"ha":889,"o":"m 728 331 q 762 331 789 318 q 816 305 833 282 q 850 260 856 230 q 863 200 856 166 q 849 132 830 102 q 811 71 784 48 q 758 26 725 13 q 692 0 658 0 q 624 0 596 13 q 569 26 551 48 q 533 71 526 102 q 520 132 527 166 q 534 200 554 230 q 573 260 600 282 q 628 305 661 318 q 694 331 728 331 z m 715 274 q 692 274 671 265 q 650 256 632 241 q 614 226 602 206 q 589 186 584 164 q 579 143 584 124 q 589 104 600 89 q 612 74 630 66 q 648 57 669 57 q 691 57 712 66 q 733 75 751 90 q 769 105 782 124 q 794 144 799 166 q 804 188 800 208 q 795 227 784 242 q 772 257 754 266 q 737 274 715 274 z m 511 532 q 504 498 484 468 q 465 438 438 416 q 410 393 377 380 q 344 367 310 367 q 276 367 248 380 q 221 393 204 416 q 186 438 180 468 q 173 498 180 532 q 187 566 206 596 q 226 626 253 648 q 280 671 313 684 q 346 698 380 698 q 414 698 442 685 q 469 672 487 650 q 505 627 512 596 q 518 566 511 532 z m 322 424 q 344 424 366 432 q 387 441 405 456 q 423 471 436 490 q 449 510 454 532 q 458 554 454 574 q 449 593 438 608 q 426 623 408 632 q 390 641 368 641 q 346 641 324 632 q 303 624 285 609 q 267 594 254 574 q 242 554 237 532 q 232 510 237 490 q 242 471 254 456 q 265 441 282 432 q 300 424 322 424 z m 268 -14 l 216 -14 l 766 705 l 818 705 z"},"m":{"x_min":0,"x_max":833,"ha":833,"o":"m 124 0 l 64 0 l 174 518 l 234 518 l 218 440 l 220 440 q 252 485 300 508 q 348 532 399 532 q 435 532 458 524 q 482 516 496 502 q 511 489 518 471 q 526 453 530 432 q 566 483 615 508 q 664 532 720 532 q 773 532 801 514 q 829 497 840 468 q 851 440 848 403 q 846 366 838 327 l 768 0 l 708 0 l 784 358 q 790 386 790 408 q 789 430 780 446 q 770 461 750 470 q 731 478 699 478 q 666 478 632 464 q 598 449 569 419 q 557 406 546 388 q 536 371 528 352 q 520 333 514 314 q 508 295 505 279 l 446 0 l 386 0 l 462 358 q 468 386 468 408 q 467 430 458 446 q 448 461 428 470 q 409 478 377 478 q 344 478 310 464 q 276 449 247 419 q 235 406 224 388 q 214 371 206 352 q 198 333 192 314 q 186 295 183 279 z"},"#":{"x_min":0,"x_max":556,"ha":556,"o":"m 552 228 l 441 228 l 361 0 l 302 0 l 381 228 l 244 228 l 162 0 l 103 0 l 185 228 l 75 228 l 88 287 l 207 287 l 258 427 l 146 427 l 158 486 l 278 486 l 355 698 l 415 698 l 338 486 l 474 486 l 550 698 l 609 698 l 533 486 l 633 486 l 621 427 l 513 427 l 463 287 l 565 287 z m 318 427 l 266 287 l 404 287 l 454 427 z"},",":{"x_min":0,"x_max":278,"ha":278,"o":"m 169 -30 q 159 -74 133 -100 q 107 -127 73 -137 l 81 -100 q 95 -92 108 -78 q 122 -64 129 -34 l 136 0 l 102 0 l 121 88 l 194 88 z"},"n":{"x_min":0,"x_max":556,"ha":556,"o":"m 132 0 l 72 0 l 182 518 l 242 518 l 227 446 q 271 484 314 508 q 358 532 412 532 q 460 532 498 516 q 535 499 554 458 q 567 430 564 400 q 562 371 555 339 l 483 0 l 423 0 l 495 338 q 510 408 486 443 q 463 478 391 478 q 363 478 338 470 q 313 461 292 447 q 270 433 253 415 q 236 397 225 377 q 211 352 204 329 q 197 306 191 279 z"},"h":{"x_min":0,"x_max":556,"ha":556,"o":"m 72 0 l 225 720 l 285 720 l 227 446 q 271 484 314 508 q 358 532 412 532 q 460 532 498 516 q 535 499 554 458 q 567 430 564 400 q 562 371 555 339 l 483 0 l 423 0 l 495 338 q 510 408 486 443 q 463 478 391 478 q 363 478 338 470 q 313 461 292 447 q 270 433 253 415 q 236 397 225 377 q 211 352 204 329 q 197 306 191 279 l 132 0 z"},"z":{"x_min":0,"x_max":500,"ha":500,"o":"m 33 0 l 44 53 l 476 468 l 155 468 l 166 518 l 564 518 l 553 465 l 121 50 l 478 50 l 467 0 z"},"B":{"x_min":0,"x_max":667,"ha":667,"o":"m 161 58 l 334 58 q 390 58 432 63 q 475 68 506 84 q 537 99 556 128 q 575 156 585 203 q 594 248 585 276 q 576 303 552 318 q 527 333 489 338 q 451 344 403 344 l 222 344 z m 234 402 l 406 402 q 459 402 497 411 q 535 420 561 438 q 587 455 602 480 q 617 506 624 539 q 631 573 625 596 q 619 620 598 634 q 577 649 540 656 q 503 662 447 662 l 290 662 z m 81 0 l 234 720 l 494 720 q 557 720 600 707 q 642 694 665 670 q 688 646 694 612 q 701 579 692 539 q 684 501 668 474 q 652 446 632 428 q 612 409 589 398 q 566 388 544 384 l 543 382 q 615 371 642 323 q 668 275 653 203 q 641 147 616 108 q 590 69 554 45 q 517 21 472 10 q 426 0 375 0 z"},"K":{"x_min":0,"x_max":667,"ha":667,"o":"m 85 0 l 238 720 l 306 720 l 227 347 l 675 720 l 752 720 l 407 433 l 649 0 l 566 0 l 349 391 l 212 278 l 153 0 z"},"R":{"x_min":0,"x_max":667,"ha":667,"o":"m 442 385 q 480 385 514 393 q 549 401 576 418 q 604 436 624 463 q 643 490 651 528 q 660 568 651 594 q 642 620 621 635 q 600 650 570 656 q 539 662 505 662 l 289 662 l 230 385 z m 218 327 l 148 0 l 80 0 l 233 720 l 515 720 q 634 720 688 676 q 741 631 720 531 q 706 463 670 423 q 633 383 565 355 q 595 344 608 323 q 622 302 626 275 q 629 248 625 218 q 621 188 616 160 q 608 119 604 92 q 601 65 601 48 q 601 31 604 22 q 607 12 613 7 l 612 0 l 537 0 q 530 19 532 50 q 534 82 539 117 q 544 152 550 186 q 556 219 556 239 q 556 268 546 286 q 536 303 520 312 q 503 321 480 324 q 457 327 432 327 z"},"T":{"x_min":0,"x_max":556,"ha":556,"o":"m 169 720 l 693 720 l 681 662 l 453 662 l 312 0 l 244 0 l 385 662 l 157 662 z"},"P":{"x_min":0,"x_max":611,"ha":611,"o":"m 78 0 l 231 720 l 494 720 q 564 720 606 704 q 648 688 668 660 q 689 632 692 596 q 695 559 686 519 q 673 459 640 420 q 608 381 564 358 q 520 336 469 327 q 418 318 368 318 l 214 318 l 146 0 z m 382 376 q 430 376 469 382 q 508 388 538 404 q 568 421 588 450 q 609 478 619 524 q 634 592 597 627 q 560 662 463 662 l 287 662 l 226 376 z"},"|":{"x_min":0,"x_max":402,"ha":402,"o":"m 301 820 l 301 -273 l 250 -273 l 250 820 z"},"t":{"x_min":0,"x_max":278,"ha":278,"o":"m 254 -2 q 243 -4 224 -9 q 204 -14 182 -14 q 137 -14 118 8 q 100 31 112 89 l 192 468 l 119 468 l 130 518 l 203 518 l 234 662 l 294 662 l 263 518 l 360 518 l 349 468 l 252 468 l 177 113 q 173 94 171 80 q 169 66 172 57 q 176 48 186 44 q 195 40 214 40 q 226 40 238 42 q 251 44 264 47 z"},"M":{"x_min":0,"x_max":833,"ha":833,"o":"m 78 0 l 231 720 l 335 720 l 436 85 l 438 85 l 805 720 l 908 720 l 755 0 l 687 0 l 823 642 l 821 642 l 449 0 l 385 0 l 284 642 l 282 642 l 146 0 z"},"g":{"x_min":0,"x_max":611,"ha":611,"o":"m 527 257 q 537 304 534 344 q 531 385 515 414 q 499 444 470 461 q 441 478 399 478 q 361 478 326 464 q 291 451 262 425 q 232 399 210 362 q 189 324 178 275 q 166 226 167 184 q 168 141 184 109 q 199 77 229 58 q 259 40 306 40 q 347 40 383 58 q 419 75 448 104 q 477 134 498 174 q 518 213 527 257 z m 582 518 l 642 518 l 543 50 q 532 -2 512 -50 q 491 -97 456 -133 q 421 -169 370 -190 q 318 -212 244 -212 q 187 -212 149 -198 q 111 -183 90 -161 q 68 -139 60 -112 q 53 -86 57 -63 l 121 -63 q 121 -92 132 -110 q 143 -129 162 -140 q 180 -150 204 -154 q 228 -158 255 -158 q 316 -158 358 -137 q 399 -116 426 -82 q 452 -48 466 -5 q 481 38 490 83 q 451 35 395 10 q 339 -14 284 -14 q 225 -14 186 8 q 147 31 126 68 q 106 106 102 156 q 99 206 111 260 q 123 317 147 367 q 171 417 207 454 q 243 490 292 511 q 340 532 403 532 q 428 532 452 525 q 477 518 498 505 q 520 492 536 472 q 553 452 561 427 l 563 427 z"},"j":{"x_min":0,"x_max":222,"ha":222,"o":"m 258 518 l 133 -69 q 126 -102 118 -127 q 110 -152 96 -170 q 82 -187 60 -196 q 37 -204 1 -204 q -21 -204 -38 -200 l -26 -147 q 24 -154 44 -136 q 63 -118 72 -77 l 198 518 z m 285 631 l 219 631 l 238 720 l 304 720 z"},"i":{"x_min":0,"x_max":222,"ha":222,"o":"m 81 0 l 191 518 l 251 518 l 141 0 z m 212 631 l 231 720 l 297 720 l 278 631 z"},"y":{"x_min":0,"x_max":500,"ha":500,"o":"m 38 -141 q 49 -143 62 -145 q 74 -147 87 -147 q 112 -147 132 -131 q 151 -115 166 -92 q 181 -70 194 -46 q 206 -21 218 -4 l 128 518 l 195 518 l 267 73 l 527 518 l 592 518 l 290 7 q 261 -42 237 -81 q 213 -120 189 -148 q 165 -175 139 -190 q 113 -204 82 -204 q 66 -204 52 -202 q 37 -200 26 -197 z"},"@":{"x_min":0,"x_max":800,"ha":800,"o":"m 778 167 q 745 123 703 88 q 661 54 613 30 q 565 6 514 -6 q 464 -19 415 -19 q 335 -19 272 11 q 209 41 169 93 q 129 145 114 214 q 100 284 117 363 q 133 441 178 510 q 223 578 285 629 q 347 680 422 710 q 496 739 572 739 q 644 739 702 716 q 760 692 798 650 q 835 608 850 550 q 865 492 850 423 q 837 364 804 311 q 772 258 730 218 q 688 178 642 154 q 595 131 555 131 q 529 131 506 144 q 483 156 480 183 q 452 160 417 146 q 382 133 350 133 q 318 133 294 145 q 271 157 258 178 q 244 198 240 225 q 237 252 243 283 q 254 333 284 386 q 313 440 355 484 q 397 529 448 558 q 500 586 556 586 q 591 586 618 569 q 646 552 654 520 l 678 566 l 745 566 l 580 264 q 571 247 564 232 q 557 218 556 207 q 554 196 560 190 q 565 183 580 183 q 611 183 644 206 q 678 229 708 264 q 738 300 760 343 q 782 386 791 426 q 804 487 791 536 q 778 585 746 619 q 715 653 668 671 q 620 689 563 689 q 494 689 430 662 q 366 636 314 590 q 263 545 226 484 q 190 424 176 356 q 161 288 173 229 q 185 170 219 126 q 253 82 306 56 q 358 31 426 31 q 504 31 582 66 q 660 102 719 167 z m 379 196 q 402 196 426 209 q 449 222 472 243 q 495 264 516 292 q 536 319 553 348 q 570 376 582 404 q 593 431 598 454 q 605 483 590 505 q 576 527 545 527 q 505 527 468 502 q 431 478 400 442 q 370 405 348 364 q 327 322 320 288 q 312 252 326 224 q 341 196 379 196 z"},".":{"x_min":0,"x_max":278,"ha":278,"o":"m 102 0 l 121 88 l 194 88 l 175 0 z"},"p":{"x_min":0,"x_max":611,"ha":611,"o":"m 194 257 q 185 213 188 174 q 192 134 208 104 q 225 75 254 58 q 282 40 323 40 q 369 40 408 58 q 446 77 474 109 q 503 141 522 184 q 541 226 549 275 q 569 373 530 426 q 492 478 416 478 q 374 478 338 461 q 301 444 272 414 q 244 385 224 344 q 204 304 194 257 z m 96 -204 l 36 -204 l 189 518 l 249 518 l 230 427 l 232 427 q 250 452 275 472 q 300 492 327 505 q 354 518 382 525 q 409 532 434 532 q 497 532 537 511 q 577 490 597 454 q 617 417 620 367 q 622 317 610 260 q 598 206 574 156 q 550 106 514 68 q 477 31 428 8 q 380 -14 321 -14 q 266 -14 220 10 q 175 35 157 83 z"},"X":{"x_min":0,"x_max":611,"ha":611,"o":"m 372 318 l 95 0 l 18 0 l 345 370 l 181 720 l 260 720 l 393 417 l 655 720 l 734 720 l 424 370 l 592 0 l 514 0 z"},"*":{"x_min":0,"x_max":389,"ha":389,"o":"m 301 603 l 326 720 l 368 720 l 343 603 l 466 645 l 472 601 l 350 564 l 402 458 l 358 434 l 307 542 l 207 436 l 177 463 l 276 564 l 172 604 l 199 646 z"},"Y":{"x_min":0,"x_max":611,"ha":611,"o":"m 381 373 l 672 720 l 751 720 l 404 314 l 337 0 l 269 0 l 335 309 l 165 720 l 243 720 z"},"c":{"x_min":0,"x_max":556,"ha":556,"o":"m 514 355 q 511 413 479 446 q 447 478 387 478 q 341 478 304 459 q 267 440 239 408 q 211 377 193 338 q 175 298 166 258 q 157 217 158 178 q 160 139 174 108 q 189 77 218 58 q 247 40 294 40 q 361 40 410 77 q 458 114 482 179 l 546 179 q 529 136 504 100 q 479 65 446 40 q 413 14 372 0 q 331 -14 282 -14 q 220 -14 180 7 q 139 28 118 64 q 96 101 93 151 q 90 201 102 258 q 113 312 139 362 q 165 411 203 449 q 241 487 290 510 q 340 532 398 532 q 488 532 534 489 q 581 446 575 355 z"},"!":{"x_min":0,"x_max":333,"ha":333,"o":"m 235 496 l 283 720 l 356 720 l 308 496 l 227 181 l 182 181 z m 130 0 l 149 88 l 222 88 l 203 0 z"},"/":{"x_min":0,"x_max":278,"ha":278,"o":"m 34 -90 l -22 -90 l 389 739 l 445 739 z"},"[":{"x_min":0,"x_max":333,"ha":333,"o":"m 50 -191 l 248 739 l 439 739 l 428 689 l 301 689 l 125 -141 l 250 -141 l 239 -191 z"},"6":{"x_min":0,"x_max":556,"ha":556,"o":"m 550 532 q 551 586 524 618 q 498 651 441 651 q 376 651 332 620 q 288 589 258 542 q 228 494 209 438 q 190 382 176 332 q 195 352 216 372 q 236 392 260 408 q 285 423 315 432 q 345 442 384 442 q 491 442 537 382 q 583 321 560 215 q 537 108 465 47 q 393 -14 285 -14 q 232 -14 190 4 q 149 21 124 61 q 100 101 95 166 q 90 230 110 323 q 119 365 133 410 q 147 454 167 496 q 187 539 214 577 q 241 615 276 644 q 310 672 352 688 q 395 705 447 705 q 531 705 578 661 q 624 617 616 532 z m 370 388 q 333 388 300 374 q 268 360 242 336 q 217 312 199 280 q 181 249 174 213 q 168 183 170 152 q 172 122 186 97 q 200 72 227 56 q 254 40 298 40 q 343 40 377 56 q 411 71 435 96 q 459 122 474 154 q 489 185 496 217 q 513 299 483 344 q 453 388 370 388 z"},"r":{"x_min":0,"x_max":333,"ha":333,"o":"m 135 0 l 75 0 l 185 518 l 245 518 l 224 421 l 226 421 q 264 483 309 508 q 354 532 419 532 l 405 467 q 355 468 318 451 q 282 434 256 405 q 231 376 214 336 q 198 297 189 254 z"},"2":{"x_min":0,"x_max":556,"ha":556,"o":"m 170 474 q 181 526 206 568 q 231 611 268 642 q 304 672 350 688 q 396 705 448 705 q 501 705 538 690 q 576 674 598 648 q 619 622 626 586 q 632 550 623 510 q 613 463 590 427 q 567 391 536 363 q 505 335 468 313 q 430 291 392 272 q 354 252 317 234 q 280 216 250 196 q 230 183 210 168 q 191 154 175 137 q 159 120 146 100 q 134 79 127 54 l 520 54 l 509 0 l 48 0 q 59 51 78 92 q 98 133 140 172 q 186 214 232 244 q 278 274 320 298 q 363 321 402 340 q 440 360 470 383 q 501 406 522 435 q 544 464 553 506 q 560 540 554 567 q 547 594 530 613 q 513 632 487 642 q 461 651 428 651 q 393 651 362 636 q 330 622 304 598 q 279 574 262 542 q 244 510 238 474 z"},"{":{"x_min":0,"x_max":333,"ha":333,"o":"m 250 577 q 259 621 272 652 q 286 683 306 702 q 327 722 356 730 q 386 738 429 737 q 341 709 322 616 l 281 424 q 275 395 267 371 q 259 347 246 328 q 233 309 214 296 q 195 282 167 275 l 167 273 q 214 262 223 228 q 232 194 220 138 l 177 -68 q 166 -119 180 -147 q 194 -175 239 -189 l 238 -191 q 194 -192 166 -184 q 139 -176 125 -158 q 111 -140 110 -112 q 109 -85 117 -47 l 160 157 q 165 180 166 199 q 167 218 161 233 q 155 248 141 258 q 127 268 103 273 l 103 275 q 133 283 152 294 q 170 304 182 318 q 193 332 200 351 q 206 370 211 395 z"},"9":{"x_min":0,"x_max":556,"ha":556,"o":"m 151 155 q 149 40 264 40 q 327 40 371 71 q 415 102 446 149 q 476 196 495 250 q 514 305 526 353 l 524 355 q 480 301 427 273 q 374 245 311 245 q 261 245 224 261 q 188 277 166 307 q 143 337 136 379 q 130 421 141 472 q 152 522 175 564 q 198 607 232 638 q 267 670 314 688 q 360 705 418 705 q 489 705 530 677 q 572 649 590 601 q 609 553 607 488 q 605 423 589 349 q 570 259 536 192 q 503 124 459 78 q 415 32 363 9 q 311 -14 255 -14 q 214 -14 180 -4 q 147 6 124 27 q 102 48 92 80 q 81 112 86 155 z m 406 651 q 325 649 274 601 q 222 553 205 470 q 188 389 221 344 q 254 299 332 299 q 369 299 402 313 q 434 327 460 351 q 485 375 502 406 q 519 438 527 474 q 543 552 512 600 q 480 649 406 651 z"}," ":{"x_min":0,"x_max":278,"ha":278,"o":""},"I":{"x_min":0,"x_max":278,"ha":278,"o":"m 105 0 l 258 720 l 326 720 l 173 0 z"},"H":{"x_min":0,"x_max":722,"ha":722,"o":"m 80 0 l 233 720 l 301 720 l 235 411 l 661 411 l 727 720 l 795 720 l 642 0 l 574 0 l 649 353 l 223 353 l 148 0 z"},"4":{"x_min":0,"x_max":556,"ha":556,"o":"m 395 174 l 73 174 l 85 229 l 512 698 l 570 698 l 470 228 l 568 228 l 557 174 l 459 174 l 422 0 l 358 0 z m 147 228 l 406 228 l 486 602 z"},"~":{"x_min":0,"x_max":660,"ha":660,"o":"m 290 324 q 317 324 345 313 q 373 302 399 288 q 426 274 450 263 q 475 252 495 252 q 512 252 528 260 q 545 269 560 282 q 575 295 588 310 q 602 325 612 339 l 645 305 q 630 285 612 266 q 594 246 574 230 q 553 215 530 206 q 507 196 482 196 q 468 196 451 200 q 434 205 416 212 q 399 218 384 226 q 368 233 356 238 q 338 246 319 257 q 300 268 278 268 q 258 268 240 259 q 222 250 206 236 q 190 222 176 206 q 162 189 150 174 l 127 221 q 141 237 158 255 q 176 273 196 288 q 216 304 240 314 q 263 324 290 324 z"},"D":{"x_min":0,"x_max":722,"ha":722,"o":"m 81 0 l 234 720 l 480 720 q 510 720 538 718 q 567 717 594 712 q 621 706 646 695 q 670 684 691 666 q 721 640 736 602 q 751 565 756 524 q 761 482 757 440 q 753 397 746 361 q 738 325 726 288 q 714 251 696 216 q 679 180 655 148 q 631 115 601 88 q 570 60 537 43 q 504 26 469 16 q 434 7 398 4 q 363 0 327 0 z m 161 58 l 324 58 q 370 58 412 64 q 454 69 500 91 q 540 109 570 140 q 600 171 622 208 q 643 244 656 284 q 670 324 678 361 q 686 400 690 440 q 693 481 687 518 q 681 554 663 584 q 645 615 612 635 q 583 652 540 657 q 498 662 453 662 l 290 662 z"},"^":{"x_min":0,"x_max":660,"ha":660,"o":"m 125 245 l 451 698 l 503 698 l 638 245 l 581 245 l 463 637 l 183 245 z"},"0":{"x_min":0,"x_max":556,"ha":556,"o":"m 526 347 q 538 404 543 458 q 548 513 538 556 q 528 599 499 625 q 470 651 414 651 q 361 651 322 624 q 283 598 254 554 q 226 510 206 454 q 187 398 175 340 q 161 272 158 216 q 154 161 166 122 q 178 83 207 62 q 236 40 287 40 q 344 40 384 68 q 424 96 452 140 q 480 184 498 239 q 515 294 526 347 z m 428 705 q 480 705 514 690 q 549 674 570 647 q 591 620 600 584 q 608 548 608 508 q 609 467 603 424 q 597 381 588 340 q 573 270 550 206 q 526 142 490 93 q 453 44 400 15 q 348 -14 275 -14 q 202 -14 162 15 q 121 44 105 94 q 89 143 93 208 q 97 274 113 347 q 127 414 150 478 q 172 542 208 592 q 245 643 298 674 q 352 705 428 705 z"},"F":{"x_min":0,"x_max":556,"ha":556,"o":"m 74 0 l 227 720 l 691 720 l 679 662 l 283 662 l 227 402 l 587 402 l 575 344 l 215 344 l 142 0 z"},"`":{"x_min":0,"x_max":333,"ha":333,"o":"m 197 713 l 275 713 l 356 574 l 305 574 z"},"k":{"x_min":0,"x_max":500,"ha":500,"o":"m 68 0 l 221 720 l 281 720 l 186 272 l 492 518 l 574 518 l 340 331 l 487 0 l 420 0 l 287 289 l 170 196 l 128 0 z"},"u":{"x_min":0,"x_max":556,"ha":556,"o":"m 533 518 l 593 518 l 483 0 l 423 0 l 438 72 q 423 58 405 43 q 387 28 364 16 q 342 3 314 -6 q 287 -14 253 -14 q 201 -14 169 0 q 137 15 121 41 q 105 67 103 102 q 101 136 110 177 l 182 518 l 242 518 l 170 178 q 156 111 180 76 q 203 40 274 40 q 311 40 344 54 q 376 69 402 95 q 427 121 446 157 q 464 193 473 236 z"},"]":{"x_min":0,"x_max":333,"ha":333,"o":"m 201 -191 l 10 -191 l 21 -141 l 148 -141 l 324 689 l 199 689 l 210 739 l 399 739 z"},"U":{"x_min":0,"x_max":722,"ha":722,"o":"m 235 720 l 303 720 l 212 291 q 183 157 220 98 q 258 39 369 39 q 427 39 470 54 q 514 70 546 102 q 578 133 599 180 q 620 227 634 291 l 725 720 l 793 720 l 698 271 q 668 130 582 56 q 497 -19 357 -19 q 216 -19 163 57 q 110 133 140 271 z"},"o":{"x_min":0,"x_max":556,"ha":556,"o":"m 275 -14 q 225 -13 186 4 q 146 21 120 55 q 95 89 87 140 q 79 191 93 259 q 105 316 130 366 q 156 415 194 452 q 232 489 282 510 q 331 532 391 532 q 452 532 492 510 q 533 489 555 452 q 577 416 581 366 q 585 316 573 259 q 560 197 532 147 q 504 97 465 61 q 426 25 378 6 q 329 -14 275 -14 z m 509 259 q 518 305 517 345 q 516 385 502 414 q 487 444 458 461 q 428 478 380 478 q 333 478 296 460 q 258 441 230 410 q 202 380 184 340 q 166 301 157 259 q 147 211 150 170 q 153 130 169 101 q 185 72 214 56 q 244 40 287 40 q 334 40 372 58 q 409 77 436 108 q 464 139 482 178 q 500 217 509 259 z"},"N":{"x_min":0,"x_max":722,"ha":722,"o":"m 282 628 l 280 628 l 147 0 l 79 0 l 232 720 l 309 720 l 591 91 l 593 91 l 727 720 l 795 720 l 642 0 l 563 0 z"},"+":{"x_min":0,"x_max":660,"ha":660,"o":"m 406 500 l 466 500 l 420 280 l 640 280 l 627 220 l 407 220 l 360 0 l 300 0 l 347 220 l 127 220 l 140 280 l 360 280 z"},"G":{"x_min":0,"x_max":778,"ha":778,"o":"m 454 314 l 466 372 l 774 372 l 695 0 l 637 0 l 663 123 q 612 58 541 20 q 470 -19 364 -19 q 296 -19 243 5 q 190 29 158 76 q 127 124 118 196 q 110 268 130 364 q 147 443 182 512 q 216 580 268 630 q 320 681 389 710 q 458 739 543 739 q 600 739 646 725 q 693 711 726 682 q 760 654 778 612 q 796 569 796 511 l 726 511 q 726 551 711 583 q 696 615 670 636 q 645 658 610 670 q 576 681 536 681 q 465 681 408 656 q 352 631 310 586 q 267 540 238 476 q 209 413 193 337 q 180 277 186 223 q 192 169 217 128 q 242 87 285 63 q 328 39 390 39 q 419 39 452 46 q 484 52 516 67 q 548 82 578 106 q 609 130 634 165 q 659 199 673 236 q 687 273 697 314 z"},"q":{"x_min":0,"x_max":611,"ha":611,"o":"m 527 261 q 536 305 532 344 q 529 384 513 414 q 497 443 468 460 q 440 478 399 478 q 352 478 314 460 q 276 441 247 409 q 218 377 199 334 q 180 292 172 243 q 162 194 168 156 q 173 119 191 93 q 209 67 238 54 q 268 40 306 40 q 348 40 384 57 q 421 74 450 104 q 478 133 498 174 q 517 214 527 261 z m 582 518 l 642 518 l 489 -204 l 429 -204 l 490 83 q 451 35 395 10 q 339 -14 284 -14 q 225 -14 186 8 q 147 31 126 68 q 106 106 102 156 q 99 206 111 260 q 123 317 147 367 q 171 417 207 454 q 243 490 292 511 q 340 532 403 532 q 428 532 452 525 q 477 518 498 505 q 520 492 536 472 q 553 452 561 427 l 563 427 z"},"d":{"x_min":0,"x_max":611,"ha":611,"o":"m 527 261 q 536 305 532 344 q 529 384 513 414 q 497 443 468 460 q 440 478 399 478 q 352 478 314 460 q 276 441 247 409 q 218 377 199 334 q 180 292 172 243 q 162 194 168 156 q 173 119 191 93 q 209 67 238 54 q 268 40 306 40 q 348 40 384 57 q 421 74 450 104 q 478 133 498 174 q 517 214 527 261 z m 625 720 l 685 720 l 532 0 l 472 0 l 491 91 l 489 91 q 471 65 446 46 q 421 26 394 13 q 367 0 340 -7 q 312 -14 287 -14 q 224 -14 184 7 q 144 28 124 64 q 104 101 102 151 q 99 201 111 258 q 123 312 147 362 q 171 412 208 450 q 244 487 292 510 q 341 532 400 532 q 455 532 500 508 q 546 483 564 435 z"},"1":{"x_min":0,"x_max":556,"ha":556,"o":"m 413 524 l 231 524 l 240 566 q 281 569 314 574 q 348 579 376 593 q 403 607 425 634 q 447 660 465 705 l 516 705 l 366 0 l 302 0 z"},"5":{"x_min":0,"x_max":556,"ha":556,"o":"m 138 183 q 133 111 173 76 q 213 40 282 40 q 321 40 356 54 q 390 68 417 92 q 444 117 462 150 q 481 182 489 220 q 497 259 492 292 q 487 325 469 349 q 451 373 422 386 q 392 399 352 399 q 304 399 262 382 q 221 364 183 326 l 132 333 l 266 698 l 616 698 l 605 644 l 309 644 l 215 407 q 238 420 258 429 q 277 438 296 444 q 315 449 335 451 q 355 453 379 453 q 427 453 465 437 q 503 421 526 391 q 549 361 557 318 q 565 274 553 220 q 541 164 513 120 q 485 77 448 47 q 411 17 367 2 q 323 -14 280 -14 q 230 -14 189 -4 q 148 6 120 30 q 92 53 79 90 q 66 128 74 183 z"}}}
